<svg width="36" height="36" viewBox="0 0 36 36" fill="none" xmlns="http://www.w3.org/2000/svg">
<path d="M33.5222 20.1819C35.6772 16.0768 31.297 13.23 25.5702 11.8339C26.001 10.8546 26.1259 9.57263 24.9109 8.34863C23.3528 6.78206 24.3884 4.5 24.3884 4.5C24.3884 4.5 21.118 7.51669 23.1829 9.59681C23.9445 10.3635 24.3411 11.0368 24.5307 11.5999C22.9497 11.2742 21.3489 11.0536 19.7387 10.9395C20.2197 9.63225 20.2664 7.99031 18.751 6.41812C16.6765 4.26319 18.058 1.125 18.058 1.125C18.058 1.125 13.6969 5.27288 16.4504 8.13263C17.4555 9.1755 17.9849 10.0935 18.2414 10.863C16.5347 10.8118 14.8922 10.8866 13.4331 11.0908C13.6069 10.2499 13.4618 9.28294 12.5342 8.34919C10.9761 6.78263 12.0122 4.5 12.0122 4.5C12.0122 4.5 8.7413 7.51669 10.8068 9.59681C11.4537 10.2482 11.8328 10.8298 12.0505 11.3366C11.8037 11.3906 11.5652 11.4493 11.335 11.5127C4.22386 10.8472 1.12224 12.3165 2.53917 15.1988C0.0664226 17.6715 0.995672 20.4936 4.08998 22.653C5.70436 29.3023 6.12005 34.875 18.279 34.875C29.1285 34.875 30.6276 30.4369 31.9714 24.7568C36.0034 23.9541 35.1445 22.0213 33.5222 20.1819ZM32.517 19.5176C31.1665 22.3976 25.3052 24.5655 18.279 24.5655C11.2534 24.5655 5.39217 22.3976 4.04105 19.5176C4.01236 19.4321 3.9848 19.3433 3.95723 19.2566C4.60073 17.6243 6.69211 16.2079 9.62948 15.2595C8.9393 15.9266 8.79586 16.9228 10.6122 17.2721C11.1319 17.3722 12.559 17.0258 11.9352 15.255C11.848 15.0075 11.7057 14.8416 11.5307 14.7414C13.549 14.2796 15.84 14.0136 18.279 14.0136C18.5524 14.0136 18.8207 14.0231 19.0902 14.0293C17.6828 14.5288 16.5347 16.0678 19.4085 16.5217C20.043 16.6219 21.7851 16.2754 21.0235 14.5046C20.9569 14.3469 20.8502 14.2092 20.7141 14.1053C23.4068 14.3033 25.8464 14.8219 27.8185 15.5694C26.0843 15.4727 24.1605 16.5414 27.2414 18.0461C27.9023 18.369 29.9104 18.6654 29.6342 16.7102C29.614 16.569 29.5642 16.4337 29.488 16.3131C31.0647 17.1439 32.1644 18.1513 32.6003 19.2566L32.517 19.5176Z" fill="#00345E"/>
<path d="M14.5331 20.7231C16.3517 20.7231 17.5645 19.0789 18.5145 18.4354C19.842 17.5354 23.1799 17.1844 20.2403 17.1135C17.452 17.0466 14.0095 19.3101 11.7088 19.1543C7.89958 18.8955 11.8011 20.7231 14.5331 20.7231ZM18.4628 24.0823C19.1051 24.2061 20.8708 23.7775 20.0985 21.5877C19.2261 19.1098 13.9448 23.2127 18.4628 24.0823ZM8.46377 18.6627C7.85008 17.7964 6.96021 16.6978 6.59177 17.2699C6.08833 18.0523 5.92971 19.6268 6.29533 19.6965C9.16183 20.2461 8.96102 19.3641 8.46377 18.6627ZM25.1278 19.0137C25.6448 18.3735 24.6126 16.8328 23.95 17.1023C22.9127 17.5242 22.3148 17.2384 21.8591 17.8785C20.7921 19.3776 24.4253 19.8827 25.1278 19.0137ZM24.805 20.848C24.0613 20.52 24.2368 21.6186 23.1383 20.7372C22.3519 20.106 20.6599 21.6979 21.7759 22.779C23.0179 23.9822 23.3486 22.8387 23.8706 22.9348C24.9315 23.13 26.7557 21.7086 24.805 20.848ZM12.4401 21.2237C12.0525 20.8423 11.5328 21.3025 11.2391 21.8638C10.9483 21.721 10.7115 21.6878 10.7115 21.6878C10.4893 21.0544 9.8284 20.6202 9.8284 20.6202C9.8284 20.6202 9.88858 21.2789 9.97577 21.6C9.24565 21.3407 9.22315 20.0357 9.22315 20.0357C9.22315 20.0357 8.73321 20.3288 8.77765 20.8266C7.97383 20.178 7.28927 20.4812 7.28927 20.4812C7.28927 20.4812 8.30908 21.055 8.44971 21.442C7.87708 21.4864 7.54296 21.6844 7.34833 22.1451C7.3489 22.149 8.48008 21.6068 9.31708 21.9983C8.9869 22.2683 9.15115 22.9427 9.15115 22.9427C9.93021 22.117 10.5523 22.2053 11.0501 22.3532C10.99 22.6058 10.9939 22.8364 11.1008 22.9765C11.9642 24.1116 14.9719 23.8562 15.7796 23.017C16.7578 22.0017 14.0398 22.7982 12.4401 21.2237Z" fill="#00345E"/>
<path d="M14.5654 16.9481C14.3095 17.4623 14.3078 17.8504 14.6037 18.2543C14.6076 18.2554 14.7229 17.0066 15.4885 16.4891C15.5509 16.911 16.2135 17.1158 16.2135 17.1158C15.6837 15.2393 17.2305 15.1414 17.2232 14.4681C16.4031 14.5373 15.9373 15.1335 15.9373 15.1335C15.2798 14.9991 14.5671 15.3428 14.5671 15.3428C14.5671 15.3428 15.1639 15.6291 15.484 15.7196C14.8866 16.213 13.7548 15.5621 13.7548 15.5621C13.7548 15.5621 13.7548 16.1336 14.2048 16.3502C13.2357 16.7074 13.1445 17.4499 13.1445 17.4499C13.1445 17.4499 14.1604 16.87 14.5654 16.9481ZM28.9378 19.5109C29.1707 19.0688 28.831 18.6092 28.831 18.6092C28.831 18.6092 28.3084 19.8056 27.535 19.7646C27.7386 19.5013 28.048 18.9163 28.048 18.9163C28.048 18.9163 27.2706 19.0643 26.8217 19.5632C26.8217 19.5632 26.0927 19.3613 25.393 19.7933C25.7878 20.3389 27.0895 19.4968 27.7797 21.3205C27.7797 21.3205 28.1903 20.7619 27.9895 20.3856C28.9131 20.3456 29.749 21.2805 29.7518 21.2771C29.7484 20.7765 29.5167 20.466 29.0042 20.205C29.2832 19.9018 30.4453 19.764 30.4453 19.764C30.4453 19.764 29.9301 19.2212 28.9378 19.5109Z" fill="#00345E"/>
</svg>
