<svg width="36" height="36" viewBox="0 0 36 36" fill="none" xmlns="http://www.w3.org/2000/svg">
<path d="M5.39844 6.3001C5.39844 5.58401 5.6829 4.89726 6.18925 4.39091C6.6956 3.88456 7.38235 3.6001 8.09844 3.6001H20.6984C21.4145 3.6001 22.1013 3.88456 22.6076 4.39091C23.114 4.89726 23.3984 5.58401 23.3984 6.3001V9.5275L29.2808 15.4099C30.1243 16.2535 30.5982 17.3976 30.5984 18.5905V31.5001C30.5984 31.7388 30.5036 31.9677 30.3348 32.1365C30.1661 32.3053 29.9371 32.4001 29.6984 32.4001C29.4597 32.4001 29.2308 32.3053 29.062 32.1365C28.8933 31.9677 28.7984 31.7388 28.7984 31.5001V18.5905C28.7978 17.8747 28.5129 17.1884 28.0064 16.6825L23.3984 12.0745V17.6275L24.9356 19.1629C25.1044 19.3319 25.1991 19.561 25.1989 19.7998C25.1988 20.0387 25.1037 20.2676 24.9347 20.4364C24.8511 20.52 24.7517 20.5862 24.6425 20.6314C24.5332 20.6766 24.4161 20.6998 24.2978 20.6997C24.059 20.6995 23.83 20.6045 23.6612 20.4355L18.2612 15.0355C17.5016 14.2759 17.0786 14.3083 16.8932 14.3551C16.5818 14.4307 16.3064 14.6791 15.9212 15.0499C15.7412 15.2227 15.6656 15.3919 15.7016 15.6439C15.7484 15.9589 15.995 16.5223 16.8356 17.3629L19.019 19.5463L19.5338 20.0629C19.6177 20.1465 19.6842 20.2458 19.7296 20.3551C19.775 20.4645 19.7984 20.5817 19.7984 20.7001C19.7984 22.0933 19.8092 23.4955 20.1944 24.5539C20.3756 25.0579 20.63 25.4317 20.9576 25.6753C21.2798 25.9165 21.755 26.1001 22.4984 26.1001C22.7371 26.1001 22.9661 26.1949 23.1348 26.3637C23.3036 26.5325 23.3984 26.7614 23.3984 27.0001V29.7001C23.3984 30.4162 23.114 31.1029 22.6076 31.6093C22.1013 32.1156 21.4145 32.4001 20.6984 32.4001H8.09844C7.38235 32.4001 6.6956 32.1156 6.18925 31.6093C5.6829 31.1029 5.39844 30.4162 5.39844 29.7001V6.3001ZM14.3984 13.5001C13.6426 13.5 12.8988 13.6903 12.2359 14.0534C11.573 14.4166 11.0122 14.9408 10.6053 15.5779C10.1985 16.2149 9.95864 16.9442 9.90795 17.6983C9.85726 18.4525 9.99736 19.2073 10.3153 19.893C10.6333 20.5788 11.1188 21.1734 11.7272 21.622C12.3356 22.0705 13.0472 22.3587 13.7962 22.4597C14.5453 22.5608 15.3078 22.4715 16.0133 22.2001C16.7188 21.9288 17.3445 21.4841 17.8328 20.9071L17.7428 20.8171L15.5612 18.6355C14.6018 17.6761 14.0492 16.7743 13.9214 15.9067C13.8591 15.5125 13.8955 15.109 14.0274 14.7323C14.1594 14.3556 14.3827 14.0176 14.6774 13.7485L14.7386 13.6891L14.9078 13.5271C14.7386 13.5101 14.5686 13.5011 14.3984 13.5001ZM17.9984 29.7001V30.6001H19.7984V29.7001C19.7984 29.4614 19.8933 29.2325 20.062 29.0637C20.2308 28.8949 20.4597 28.8001 20.6984 28.8001H21.5984V27.8281C20.9801 27.7344 20.3935 27.493 19.8884 27.1243C19.3403 27.2967 18.8615 27.6394 18.5216 28.1027C18.1817 28.5659 17.9984 29.1255 17.9984 29.7001ZM7.19844 9.0001H8.09844C8.81452 9.0001 9.50128 8.71563 10.0076 8.20929C10.514 7.70294 10.7984 7.01618 10.7984 6.3001V5.4001H8.99844V6.3001C8.99844 6.53879 8.90362 6.76771 8.73483 6.93649C8.56605 7.10528 8.33713 7.2001 8.09844 7.2001H7.19844V9.0001ZM17.9984 6.3001C17.9984 7.01618 18.2829 7.70294 18.7892 8.20929C19.2956 8.71563 19.9824 9.0001 20.6984 9.0001H21.5984V7.2001H20.6984C20.4597 7.2001 20.2308 7.10528 20.062 6.93649C19.8933 6.76771 19.7984 6.53879 19.7984 6.3001V5.4001H17.9984V6.3001ZM10.7984 29.7001C10.7984 28.984 10.514 28.2973 10.0076 27.7909C9.50128 27.2846 8.81452 27.0001 8.09844 27.0001H7.19844V28.8001H8.09844C8.33713 28.8001 8.56605 28.8949 8.73483 29.0637C8.90362 29.2325 8.99844 29.4614 8.99844 29.7001V30.6001H10.7984V29.7001Z" fill="#00345E"/>
</svg>
