<svg width="1440" height="772" viewBox="0 0 1440 772" fill="none" xmlns="http://www.w3.org/2000/svg">
<rect width="1440" height="772" fill="#00345E"/>
<mask id="mask0_314_2354" style="mask-type:alpha" maskUnits="userSpaceOnUse" x="0" y="0" width="1440" height="772">
<rect width="1440" height="772" fill="#00345E"/>
</mask>
<g mask="url(#mask0_314_2354)">
<g style="mix-blend-mode:lighten">
<path d="M793.126 275.911C795.002 273.596 796.775 271.143 798.392 268.705C831.162 218.579 820.792 157.168 845.698 93.1701C854.996 69.4468 871.831 44.452 891.174 28.3361C906.569 15.3544 919.942 6.9636 932.647 0.171109C946.283 -9.90505 960.845 -18.342 975.021 -24.6474C982.059 -27.7809 989.03 -30.4004 994.929 -32.134C1000.63 -33.7315 1006.03 -35.0666 1005 -32.464C1067.04 -61.834 1091.4 -46.7925 1114.15 -44.3227C1134.94 -39.6336 1157.71 -33.5333 1164.72 -33.5141C1184.81 -32.3262 1201.59 -28.0352 1215.91 -23.7166C1222.72 -21.6446 1228.75 -19.4539 1234.23 -17.2841C1254.04 -7.78717 1258.72 -2.16734 1264.45 2.44751C1269.46 6.90812 1272.67 10.2926 1275.27 13.0739C1280.53 18.7866 1283.86 22.9686 1286.92 26.8949C1292.79 34.4983 1297.11 40.8835 1301.06 46.9792C1308.86 59.1047 1315.1 70.2823 1320.85 81.2062C1332.3 103.035 1341.62 123.777 1350.42 142.945C1375.88 195.6 1384.05 240.053 1399.61 263.527C1413.12 284.548 1409.46 299.132 1403.45 313.535C1396.4 331.896 1384.08 349.257 1394.79 368.667C1394.24 366.21 1393.44 363.596 1392.54 361.162C1390.52 355.812 1388.28 352.762 1387.66 351.267C1386.98 349.752 1387.58 349.478 1389.07 349.56C1392.28 349.882 1397.65 351.194 1407.58 354.169C1401.48 352.729 1401.67 354.81 1404.65 355.825C1407.67 356.991 1413.26 357.814 1420.01 357.883C1427.19 357.536 1434.58 357.105 1442.69 355.749C1458.56 352.743 1479.83 341.499 1500.73 299.279C1514.23 275.721 1527.25 250.497 1540.3 224.85C1560.37 190.275 1577.59 172.984 1587.86 153.41C1596.18 139.836 1605.8 128.345 1612.73 119.44C1622.15 107.417 1631.68 99.4282 1636.12 94.9999C1642.89 88.9479 1649.39 84.0783 1654.99 80.1702C1660.8 75.9007 1664.77 74.5252 1673.04 65.2791L1671.14 69.257C1672.64 67.7286 1673.3 68.3197 1674.41 67.5896C1675.48 66.9632 1676.67 65.5373 1677.86 63.7307C1680.24 60.0815 1682.56 55.2672 1684.76 50.4758L1684.68 52.0029C1690.81 36.1656 1696.25 20.5365 1699.1 7.78387C1702.11 -5.85604 1706.18 -16.628 1710.42 -24.8836C1712.21 -28.383 1715.97 -29.9981 1719.68 -30C1719.68 -30 1719.68 -30 1719.68 -30C1724.3 -29.998 1728.84 -27.4924 1729.42 -22.9948C1731.77 -4.29625 1737.78 21.4128 1748.98 53.9468C1748.95 54.2213 1748.96 55.0532 1748.91 55.326C1750.55 61.438 1752.33 67.7963 1753.69 75.5814C1755.37 83.3389 1754.45 95.6462 1752.87 103.472C1752.46 104.25 1751.46 106.686 1750.98 107.42C1749.17 121.767 1738.99 140.59 1729.46 150.909C1719.65 161.984 1709.35 169.183 1698.31 176.018C1677.58 188.95 1663.34 192.408 1655.55 206.538C1650.56 214.04 1645.44 222.049 1640.48 230.763C1631.86 245.895 1623.8 262.762 1625.74 267.677C1620.21 293.705 1615.72 320.915 1608.84 347.673C1604.84 379.456 1566.15 461.533 1488.46 486.837C1486.81 487.434 1485.17 488.021 1483.53 488.598C1446.22 500.917 1412.55 512.742 1363.42 503.951C1351.73 503.006 1333.48 501.892 1311.31 494.574C1290.2 487.462 1255.18 470.014 1235 425.675C1220.32 402.122 1210.13 371.602 1205.78 350.628C1200.33 325.379 1199.76 300.75 1201.08 270.083C1201.63 255.339 1199.79 242.775 1196.26 232.13C1185.08 203.858 1171.66 183.766 1156.74 168.617C1149.33 161.138 1141.43 154.724 1133.95 150.419C1130.27 148.339 1126.55 146.654 1124.08 146.963C1122.92 147.174 1121.95 147.834 1122.77 150.353C1123.27 151.672 1124.16 153.459 1126.84 156.538C1129.9 159.625 1133.23 164.29 1148.33 172.146C1141.4 174.026 1136.74 180.16 1150.55 186.628C1125.87 189.608 1113.73 191.801 1104.42 195.087C1100.29 196.667 1097.39 198.651 1100.61 200.271C1104.12 200.533 1113.84 207.379 1151.16 186.602C1141.91 193.252 1140.66 194.348 1139.73 195.483C1139.03 196.423 1139.58 196.526 1140.07 196.539C1141.1 196.5 1142.01 196.196 1141.91 196.739C1117.8 224.599 1093.22 248.114 1075.51 267.241C1048.51 296.615 1020.03 330.888 999.635 360.692C973.184 402.756 947.733 445.289 927.101 482.182C920.021 494.754 913.572 506.992 907.318 519.36C897.773 537.919 884.317 563.744 859.232 590.737C849.713 601.369 839.832 612.411 827.662 624.918C821.446 631.248 814.88 637.838 805.566 645.954C800.829 650.029 795.436 654.557 787.186 660.281C777.62 665.851 771.035 674.1 734.906 683.369C713.755 688.394 692.581 692.275 668.613 694.659C656.512 695.809 643.885 696.644 628.288 696.349C620.404 696.159 611.829 695.755 600.543 694.197C588.776 691.983 576.668 691.94 547.471 677.693C525.072 663.275 494.621 657.416 446.932 597.964C447.887 597.569 438.912 586.283 428.356 572.389C416.793 555.968 398.346 536.138 383.605 492.696C369.884 448.298 352.638 389.537 340.986 343.804C327.495 290.521 315.09 243.254 303.84 215.274C290.386 182.576 277.533 149.273 268.195 121.554C267.366 119.056 266.544 116.624 265.855 114.49C265.519 113.437 265.21 112.451 265.032 111.696C264.935 111.306 264.884 110.995 264.905 110.801C264.936 110.618 265.023 110.536 265.418 110.9C257.873 97.2381 254.367 88.3753 253.326 84.5989C253.128 82.9462 253.118 82.6387 258.703 87.3518C261.725 89.7123 266.112 93.6817 276.513 99.0959C286.38 104.28 305.844 111.004 327.673 108.629C341.033 107.15 344.972 105.223 348.508 104.101C351.804 102.888 353.187 102.16 354.241 101.601C356.178 100.519 356.155 100.225 355.856 100.135C355.082 100.017 352.753 100.764 350.271 101.65C345.173 103.492 339.097 105.998 332.921 108.563C320.525 113.726 307.59 119.198 294.612 124.586C278.303 131.124 270.064 133.671 260.244 139.164C250.611 144.515 239.986 152.966 229.348 163.203C176.83 215.737 132.944 269.01 103.988 303.91C103.038 305.052 102.097 306.188 101.166 307.318C41.3037 381.291 25.4449 402.507 -2.27814 490.275C-6.52811 504.469 -11.9543 519.59 -17.7415 534.855C-34.7108 581.416 -69.3071 627.71 -107.49 657.083C-113.976 662.299 -119.04 665.04 -123.081 666.597C-127.114 667.743 -130.331 670.091 -133.604 668.404C-140.379 662.878 -139.548 647.778 -134.529 632.222C-119.599 586.562 -96.8058 557.304 -107.024 528.402C-111.187 516.934 -115.189 507.165 -118.505 498.437C-128.55 456.381 -123.757 429.84 -84.7901 391.951C-35.8842 345.387 -70.023 294.905 -46.9885 264.948C-38.9576 254.63 -30.3254 249.865 -19.5774 240.602C1.64652 222.898 25.8022 188.619 85.4228 76.8931C88.0982 72.0027 90.7689 67.1966 93.43 62.474C115.333 20.5203 164.795 -26.9317 195.47 -46.4777C207.18 -55.2226 218.138 -63.4744 229.228 -71.6312C234.799 -75.7167 240.335 -79.7589 247.003 -84.2563C250.394 -86.5229 254.04 -88.9258 259.461 -92.0088C262.319 -93.6038 265.506 -95.3635 270.943 -97.8009C277.515 -100.051 280.715 -104.118 309.233 -107.813C340.977 -110.955 368.584 -100.527 383.971 -91.761C399.854 -82.7609 408.457 -74.7679 415.218 -68.413C428.197 -55.6874 433.94 -47.6514 439.132 -41.0115C448.805 -28.1555 454.123 -20.5365 456.388 -18.7369C488.407 27.064 497.871 46.8749 512.008 71.3926C519.072 84.0447 525.924 99.7051 532.67 117.657C555.691 177.803 560.432 241.168 568.185 293.59C574.876 336.714 581.352 368.186 595.554 401.625C598.098 407.675 600.763 414.217 603.546 421.202C600.14 409.4 599.226 410.511 604.97 416.22C610.746 422.812 620.353 430.707 639.771 455.429C631.949 445.153 631.182 446.632 635.85 449.088C640.415 451.843 649.286 456.54 660.125 462.02C640.013 452.33 636.95 453.875 634.252 452.968C632.076 452.629 632.625 452.722 633.808 452.686C636.365 452.665 641.81 452.391 647.521 451.774C659.172 450.553 672.769 448.164 684.868 445.197C669.002 448.728 663.203 452.193 658.895 454.191C654.822 456.278 653.055 457.433 651.911 458.122C649.801 459.444 650.325 459.025 651.198 458.122C653.162 456.197 657.127 452.253 661.085 448.061C669.181 439.517 678.004 429.567 686.088 420.043C685.877 419.182 685.96 417.854 687.065 414.394C688.109 411.027 689.704 406.073 691.065 400.868C693.812 390.464 697.708 379.781 701.891 370.807C722.561 325.155 751.937 326.502 793.126 275.911Z" fill="#023E6E"/>
</g>
</g>
</svg>
