<svg width="79" height="34" viewBox="0 0 79 34" fill="none" xmlns="http://www.w3.org/2000/svg">
<rect y="-0.0664062" width="33.1327" height="33.1327" rx="5.52212" fill="#3F220F"/>
<path d="M16.5664 6.37598L8.2832 10.0574V15.5795C8.2832 20.6875 11.8174 25.4641 16.5664 26.6238C21.3154 25.4641 24.8496 20.6875 24.8496 15.5795V10.0574L16.5664 6.37598ZM16.5664 10.6832C17.0266 10.6832 17.4407 11.079 17.4407 11.5576V14.7604L22.0885 17.6595V18.8284L17.4407 17.3742V20.5678L18.6004 21.4422V22.3165L16.5664 21.7275L14.5324 22.3165V21.4422L15.6921 20.5678V17.3742L11.0443 18.8284V17.6595L15.6921 14.7604V11.5576C15.6921 11.079 16.1062 10.6832 16.5664 10.6832Z" fill="#E71D36"/>
<path d="M44.6352 10.9367V19.1536C44.6352 19.6837 44.5469 20.1697 44.3702 20.6114C44.2045 21.0422 43.956 21.4121 43.6247 21.7214C43.2934 22.0196 42.8903 22.257 42.4153 22.4337C41.9515 22.5994 41.4214 22.6822 40.825 22.6822C40.2507 22.6822 39.7426 22.6049 39.3009 22.4503C38.8701 22.2957 38.4946 22.0748 38.1744 21.7876C37.8651 21.5005 37.6111 21.1581 37.4123 20.7605C37.2135 20.3629 37.0755 19.9212 36.9981 19.4352L39.3506 18.9714C39.5383 19.9764 40.0187 20.4789 40.7918 20.4789C41.1563 20.4789 41.4655 20.3629 41.7196 20.131C41.9846 19.8991 42.1172 19.5346 42.1172 19.0376V12.9578H38.6051V10.9367H44.6352ZM53.8811 22.5L53.0528 19.75H49.1928L48.3645 22.5H45.8133L49.6235 10.9367H52.738L56.4986 22.5H53.8811ZM51.1476 13.2228H51.0648L49.7892 17.6129H52.4398L51.1476 13.2228ZM58.0984 22.5V10.9367H63.5653C64.1065 10.9367 64.5924 11.0305 65.0231 11.2183C65.4539 11.395 65.8183 11.6435 66.1165 11.9638C66.4258 12.2841 66.6632 12.6761 66.8289 13.14C66.9945 13.5928 67.0774 14.0898 67.0774 14.631C67.0774 15.1832 66.9945 15.6857 66.8289 16.1385C66.6632 16.5913 66.4258 16.9779 66.1165 17.2982C65.8183 17.6184 65.4539 17.8725 65.0231 18.0602C64.5924 18.2369 64.1065 18.3253 63.5653 18.3253H60.6165V22.5H58.0984ZM60.6165 16.1385H63.2671C63.6426 16.1385 63.9353 16.0446 64.1451 15.8569C64.366 15.6581 64.4764 15.3709 64.4764 14.9954V14.2665C64.4764 13.891 64.366 13.6094 64.1451 13.4216C63.9353 13.2228 63.6426 13.1234 63.2671 13.1234H60.6165V16.1385ZM74.8803 22.5L74.0519 19.75H70.192L69.3637 22.5H66.8124L70.6227 10.9367H73.7372L77.4977 22.5H74.8803ZM72.1468 13.2228H72.064L70.7884 17.6129H73.439L72.1468 13.2228Z" fill="#3F220F"/>
</svg>
