<svg width="288" height="100" viewBox="0 0 288 100" fill="none" xmlns="http://www.w3.org/2000/svg">
<path d="M34.5 84.9688C31.25 84.9688 28.0312 84.5938 24.8438 83.8438C21.7188 83.0938 18.7188 82 15.8438 80.5625C12.9688 79.0625 10.4375 77.0938 8.25 74.6562C6.0625 72.2188 4.875 69.3125 4.6875 65.9375V62V60.5938C4.6875 58.8438 5.3125 57.4062 6.5625 56.2812C7.875 55.0938 9.40625 54.5 11.1562 54.5C14.9062 54.8125 16.9375 56.8438 17.25 60.5938V63.0312C17.375 64.9688 18.0938 66.5938 19.4062 67.9062C20.7812 69.1562 22.2812 70.1562 23.9062 70.9062C25.5938 71.6562 27.3125 72.2188 29.0625 72.5938C30.875 72.9688 32.6875 73.1562 34.5 73.1562C36.3125 73.1562 38.0938 72.9688 39.8438 72.5938C41.6562 72.2188 43.375 71.6562 45 70.9062C46.6875 70.1562 48.1875 69.1562 49.5 67.9062C50.875 66.5938 51.625 64.9688 51.75 63.0312V32.0938C51.75 30.3438 52.375 28.9062 53.625 27.7812C54.9375 26.5938 56.4688 26 58.2188 26C61.9688 26.3125 64.0312 28.3438 64.4062 32.0938V62V65.9375C64.2188 69.3125 63 72.2188 60.75 74.6562C58.5625 77.0938 56.0312 79.0625 53.1562 80.5625C50.2812 82 47.25 83.0938 44.0625 83.8438C40.9375 84.5938 37.75 84.9688 34.5 84.9688ZM97.5938 68.2812C97.5938 66.5312 98.1875 65.0625 99.375 63.875C100.625 62.625 102.125 62 103.875 62H118.219L115.781 55.0625C114.781 52.5 113.781 50.0938 112.781 47.8438C111.844 45.5312 110.75 43.4375 109.5 41.5625C108.375 39.6875 107.094 38.6875 105.656 38.5625C104.156 38.6875 102.812 39.6875 101.625 41.5625C100.438 43.4375 99.3438 45.5312 98.3438 47.8438C97.4062 50.0938 96.4375 52.5 95.4375 55.0625L86.5312 79.4375C85.9062 80.75 85.0938 81.8438 84.0938 82.7188C83.1562 83.5312 81.7188 83.9375 79.7812 83.9375C77.9688 83.9375 76.4688 83.3125 75.2812 82.0625C74.1562 80.8125 73.6562 79.3125 73.7812 77.5625C73.8438 76.75 74.0312 76 74.3438 75.3125L84.6562 48.6875C87.5312 41.6875 90.4062 36.0312 93.2812 31.7188C96.0938 27.4687 100.219 25.3125 105.656 25.25C111.031 25.3125 115.125 27.4687 117.938 31.7188C120.812 35.9062 123.688 41.5625 126.562 48.6875L136.875 75.3125C137.188 76 137.375 76.75 137.438 77.5625C137.562 79.3125 137.031 80.8125 135.844 82.0625C134.719 83.3125 133.25 83.9375 131.438 83.9375C129.375 83.9375 127.844 83.5312 126.844 82.7188C125.906 81.8438 125.125 80.75 124.5 79.4375L122.719 74.5625H103.875C102.125 74.5625 100.656 73.9375 99.4688 72.6875C98.2188 71.5 97.5938 70.0312 97.5938 68.2812ZM159.469 77.8438C159.094 81.5938 157.031 83.625 153.281 83.9375C151.531 83.9375 150 83.375 148.688 82.25C147.438 81.0625 146.812 79.5938 146.812 77.8438V33.5938C146.875 31.8438 147.531 30.4062 148.781 29.2812C150.031 28.0938 151.531 27.5 153.281 27.5H192.656C198.156 27.6875 202.312 28.9062 205.125 31.1562C207.938 33.3438 209.969 35.8438 211.219 38.6562C212.469 41.4688 213.094 44.3125 213.094 47.1875C213.094 50.1875 212.469 53.0938 211.219 55.9062C210.031 58.7188 208 61.25 205.125 63.5C202.312 65.6875 198.719 66.75 194.344 66.6875H170.719C168.969 66.6875 167.5 66.0625 166.312 64.8125C165.062 63.625 164.438 62.1562 164.438 60.4062C164.438 58.6562 165.031 57.1875 166.219 56C167.469 54.75 168.969 54.125 170.719 54.125H194.906C196.094 54.125 197.062 53.75 197.812 53C198.625 52.1875 199.219 51.2812 199.594 50.2812C199.969 49.2188 200.156 48.1562 200.156 47.0938C200.156 46.0938 199.969 45.0938 199.594 44.0938C199.219 43.0312 198.625 42.125 197.812 41.375C197.062 40.5625 196.094 40.125 194.906 40.0625H161.906C160.281 40.125 159.469 40.9375 159.469 42.5V77.8438ZM244.125 68.2812C244.125 66.5312 244.719 65.0625 245.906 63.875C247.156 62.625 248.656 62 250.406 62H264.75L262.312 55.0625C261.312 52.5 260.312 50.0938 259.312 47.8438C258.375 45.5312 257.281 43.4375 256.031 41.5625C254.906 39.6875 253.625 38.6875 252.188 38.5625C250.688 38.6875 249.344 39.6875 248.156 41.5625C246.969 43.4375 245.875 45.5312 244.875 47.8438C243.938 50.0938 242.969 52.5 241.969 55.0625L233.062 79.4375C232.438 80.75 231.625 81.8438 230.625 82.7188C229.688 83.5312 228.25 83.9375 226.312 83.9375C224.5 83.9375 223 83.3125 221.812 82.0625C220.688 80.8125 220.188 79.3125 220.312 77.5625C220.375 76.75 220.562 76 220.875 75.3125L231.188 48.6875C234.062 41.6875 236.938 36.0312 239.812 31.7188C242.625 27.4687 246.75 25.3125 252.188 25.25C257.562 25.3125 261.656 27.4687 264.469 31.7188C267.344 35.9062 270.219 41.5625 273.094 48.6875L283.406 75.3125C283.719 76 283.906 76.75 283.969 77.5625C284.094 79.3125 283.562 80.8125 282.375 82.0625C281.25 83.3125 279.781 83.9375 277.969 83.9375C275.906 83.9375 274.375 83.5312 273.375 82.7188C272.438 81.8438 271.656 80.75 271.031 79.4375L269.25 74.5625H250.406C248.656 74.5625 247.188 73.9375 246 72.6875C244.75 71.5 244.125 70.0312 244.125 68.2812Z" fill="#00345E"/>
<rect x="73" y="20" width="68" height="72" fill="#F5F5F5"/>
<path d="M130.585 28.331L134.881 32.6268L132.733 34.7747L134.881 36.9226L119.845 51.9579L121.993 54.1058L119.845 56.2537L124.141 60.5495L121.993 62.6974L124.141 64.8452L121.993 66.9931L126.289 71.2889L124.141 73.4368L126.289 75.5847L124.141 77.7326L126.289 79.8805L119.845 86.3242L113.402 79.8805L115.55 77.7326L109.106 71.2889L111.254 69.141L106.958 64.8452L98.3663 73.4368L100.514 75.5847L98.3663 77.7326L100.514 79.8805L98.3663 82.0284L100.514 84.1763L96.2184 88.4721L89.7748 82.0284L91.9226 79.8805L83.3311 71.2889L81.1832 73.4368L74.7395 66.9931L79.0353 62.6974L81.1832 64.8452L83.3311 62.6973L85.479 64.8452L87.6269 62.6974L89.7748 64.8452L98.3663 56.2537L94.0705 51.9579L91.9226 54.1058L85.479 47.6621L83.3311 49.81L76.8874 43.3663L83.3311 36.9226L85.479 39.0705L87.6269 36.9226L89.7747 39.0705L91.9226 36.9226L96.2184 41.2184L98.3663 39.0705L100.514 41.2184L102.662 39.0705L106.958 43.3663L109.106 41.2184L111.254 43.3663L126.289 28.331L128.437 30.4789L130.585 28.331Z" fill="#E71D36"/>
</svg>
