<svg width="100" height="140" viewBox="0 0 100 140" fill="none" xmlns="http://www.w3.org/2000/svg">
<mask id="mask0_4704_34101" style="mask-type:alpha" maskUnits="userSpaceOnUse" x="0" y="0" width="100" height="140">
<rect x="0.328125" width="99" height="140" rx="12" fill="#162A1C"/>
</mask>
<g mask="url(#mask0_4704_34101)">
<rect x="26" y="64" width="82" height="82" rx="13.6667" fill="#FFD0B1" fill-opacity="0.95"/>
<path d="M61.3359 77.2783L40.8359 86.3894V100.056C40.8359 112.698 49.5826 124.519 61.3359 127.389C73.0893 124.519 81.8359 112.698 81.8359 100.056V86.3894L61.3359 77.2783ZM61.3359 87.9383C62.4748 87.9383 63.4998 88.9178 63.4998 90.1022V98.0289L75.0026 105.204V108.097L63.4998 104.498V112.402L66.3698 114.566V116.729L61.3359 115.272L56.302 116.729V114.566L59.172 112.402V104.498L47.6693 108.097V105.204L59.172 98.0289V90.1022C59.172 88.9178 60.197 87.9383 61.3359 87.9383Z" fill="#E71D36"/>
<path d="M82.3359 104C79.7648 104 77.2514 104.762 75.1135 106.191C72.9757 107.619 71.3094 109.65 70.3255 112.025C69.3416 114.401 69.0841 117.014 69.5857 119.536C70.0873 122.058 71.3255 124.374 73.1436 126.192C74.9616 128.01 77.278 129.249 79.7998 129.75C82.3215 130.252 84.9354 129.994 87.3108 129.01C89.6863 128.026 91.7166 126.36 93.145 124.222C94.5735 122.085 95.3359 119.571 95.3359 117C95.3359 113.552 93.9663 110.246 91.5283 107.808C89.0904 105.37 85.7838 104 82.3359 104ZM80.4788 122.191L75.8359 117.548L77.3124 116.071L80.4788 119.238L87.3595 112.357L88.8415 113.83L80.4788 122.191Z" fill="#0B7B56"/>
</g>
</svg>
