<svg width="24" height="175" viewBox="0 0 24 175" fill="none" xmlns="http://www.w3.org/2000/svg">
<path d="M12 0.5V174.5" stroke="#98A2B3" stroke-dasharray="5 5"/>
<path d="M11 97.5L13 97.5L13 96.5L14 96.5L14 89.5L15 89.5L15 88.5L17 88.5L17 87.5L18 87.5L18 86.5L20 86.5L20 85.5L21 85.5L21 84.5L22 84.5L22 81.5L19 81.5L19 82.5L16 82.5L16 83.5L14 83.5L14 79.5L15 79.5L15 78.5L16 78.5L16 77.5L17 77.5L17 75.5L14 75.5L14 76.5L10 76.5L10 75.5L7 75.5L7 77.5L8 77.5L8 78.5L9 78.5L9 79.5L10 79.5L10 83.5L8 83.5L8 82.5L5 82.5L5 81.5L2 81.5L2 84.5L3 84.5L3 85.5L4 85.5L4 86.5L6 86.5L6 87.5L7 87.5L7 88.5L9 88.5L9 89.5L10 89.5L10 96.5L11 96.5L11 97.5Z" fill="#3F220F"/>
</svg>
