<?xml version="1.0" encoding="UTF-8" standalone="no"?>
<svg
   id="Guides__x26__Information"
   viewBox="0 0 496.98 60.67"
   version="1.1"
   xmlns="http://www.w3.org/2000/svg"
   xmlns:svg="http://www.w3.org/2000/svg">
  <defs
     id="defs1">
    <style
       id="style1">
      .cls-1 {
        fill: #5ce500;
      }

      .cls-2 {
        fill: #4b4e52;
      }
    </style>
  </defs>
  <path
     class="cls-1"
     d="M48.33,40.53c0,.57-.4,1.27-.9,1.55l-12.51,7.22v-27.86L10.8,7.52,23.31.3c.49-.29,1.3-.29,1.8,0l23.22,13.41v26.82ZM29.56,24.54L13.04,15c-.49-.28-1.3-.28-1.8,0L.08,21.44l17.42,10.06v20.12s11.16-6.45,11.16-6.45c.49-.29.9-.99.9-1.56v-19.08ZM.08,41.56l12.05,6.96v-13.93L.08,41.56Z"
     id="path1"
     clip-path="none" />
  <g
     id="g3">
    <path
       class="cls-2"
       d="M74.9,13.7h-13.15v35.6h5.83v-13.97h7.36c7.96,0,12.35-3.89,12.35-10.96,0-3.21-1.21-10.67-12.4-10.67M81.37,24.47c0,4.01-2.08,5.65-7.19,5.65h-6.59v-11.16h7.36c4.32,0,6.42,1.8,6.42,5.51M104.66,23.36l.44.21-.99,5.26-.68-.21c-.56-.17-1.12-.26-1.69-.26-5.45,0-5.89,4.34-5.89,9.59v11.34h-5.4v-26.14h5.07v3.15c1.38-2.12,3.05-3.22,5.24-3.48,1.44-.17,2.84.03,3.91.54M117.94,22.63c-4.25,0-7.66,1.62-9.85,4.68-2.3,3.22-2.64,7-2.64,8.96,0,8.26,4.9,13.6,12.49,13.6,9.22,0,12.49-7.43,12.49-13.79,0-3.66-1.09-6.98-3.05-9.35-2.23-2.68-5.49-4.1-9.44-4.1M117.94,45.05c-4.23,0-6.85-3.36-6.85-8.77s2.63-8.87,6.85-8.87,6.9,3.44,6.9,8.77-2.65,8.87-6.9,8.87M175.83,23.36l.44.21-.99,5.26-.68-.21c-.56-.17-1.12-.26-1.68-.26-5.45,0-5.89,4.34-5.89,9.59v11.34h-5.4v-26.14h5.07v3.15c1.38-2.12,3.05-3.22,5.24-3.48,1.44-.17,2.84.03,3.9.54M195.23,40.92l-.1.29c-1.13,3.21-3.82,3.89-5.89,3.89-4.09,0-6.72-2.71-6.97-7.12h18.48l.07-.51c.08-.6.07-1.46.06-2.08,0-.17,0-.32,0-.47-.27-7.32-5.04-12.23-11.87-12.23-3.99,0-7.26,1.57-9.46,4.54-1.78,2.4-2.8,5.72-2.8,9.11,0,8.08,5.02,13.51,12.5,13.51,5.78,0,9.76-2.94,11.22-8.27l.17-.64h-5.4ZM182.45,33.28c.45-3.62,2.93-5.92,6.46-5.92,2.69,0,5.88,1.57,6.33,5.92h-12.79ZM151.78,25.35c-1.74-1.81-4.07-2.72-6.95-2.72-7.93,0-11.53,6.97-11.53,13.45s3.57,13.36,11.53,13.36c2.66,0,5.03-.98,6.74-2.74-.02,1.15-.05,2.25-.08,2.72-.29,4.31-2.37,6.32-6.52,6.32-2.26,0-4.85-.8-5.35-3.05l-.11-.5h-5.32s.09.71.09.71c.56,4.61,4.6,7.47,10.56,7.47,5.22,0,8.94-1.97,10.75-5.69.87-1.79,1.31-4.41,1.31-7.77v-23.77h-5.11v2.19ZM145.17,44.62c-1.89,0-6.28-.86-6.28-8.77,0-5.2,2.46-8.44,6.42-8.44,3.06,0,6.33,2.22,6.33,8.44,0,5.49-2.42,8.77-6.47,8.77M225.83,41.43c0,4.16-3.45,8.35-11.16,8.35-6.82,0-10.88-2.95-11.42-8.31l-.06-.55h5.32l.08.4c.65,3.22,3.72,3.9,6.18,3.9,2.7,0,5.58-.87,5.58-3.31,0-1.23-.8-2.11-2.39-2.6-.94-.28-2.09-.6-3.32-.95-2.1-.59-4.28-1.2-5.62-1.66-3.32-1.19-5.22-3.5-5.22-6.35,0-5.27,5.13-7.63,10.21-7.63,6.8,0,10.32,2.56,10.76,7.83l.04.54h-5.24s-.07-.42-.07-.42c-.53-3.03-3.54-3.48-5.29-3.48-1.51,0-5.03.27-5.03,2.78,0,1.14.97,1.98,2.98,2.56.6.17,1.49.4,2.51.66,2.13.55,4.79,1.24,6.13,1.7,3.33,1.17,5.02,3.37,5.02,6.54M250.78,41.43c0,4.16-3.45,8.35-11.16,8.35-6.82,0-10.88-2.95-11.42-8.31l-.06-.55h5.32l.08.4c.65,3.22,3.72,3.9,6.18,3.9,2.7,0,5.58-.87,5.58-3.31,0-1.23-.8-2.11-2.39-2.6-.94-.28-2.1-.6-3.32-.95-2.1-.59-4.28-1.2-5.61-1.66-3.32-1.19-5.22-3.5-5.22-6.35,0-5.27,5.13-7.63,10.21-7.63,6.8,0,10.32,2.56,10.76,7.83l.05.54h-5.24s-.07-.42-.07-.42c-.53-3.03-3.54-3.48-5.29-3.48-1.51,0-5.03.27-5.03,2.78,0,1.14.97,1.98,2.98,2.56.6.17,1.49.4,2.52.66,2.13.55,4.79,1.24,6.13,1.7,3.33,1.17,5.02,3.37,5.02,6.54"
       id="path2"
       clip-path="none" />
    <path
       class="cls-2"
       d="M255.05,25.96c-2.01,0-3.68-1.57-3.68-3.72s1.67-3.72,3.68-3.72,3.68,1.57,3.68,3.72-1.67,3.72-3.68,3.72M255.05,19.14c-1.67,0-3.01,1.28-3.01,3.09s1.34,3.09,3.01,3.09,3.01-1.28,3.01-3.09-1.34-3.09-3.01-3.09M254.62,22.93v1.24h-1.1v-3.91h1.83c.87,0,1.44.51,1.44,1.36,0,.61-.29,1.02-.75,1.18l.89,1.36h-1.22l-.75-1.24h-.35ZM255.23,21.18h-.61v.87h.61c.33,0,.51-.16.51-.43s-.18-.45-.51-.45"
       id="path3"
       clip-path="none" />
  </g>
  <rect
     class="cls-2"
     x="281.24"
     y="6.93"
     width=".89"
     height="53.26"
     id="rect3"
     clip-path="none" />
  <g
     id="g11">
    <g
       id="g8">
      <path
         class="cls-2"
         d="M368.36,49.57V14.08h12c2.53,0,4.79.43,6.77,1.28,1.98.85,3.54,2.11,4.68,3.78,1.14,1.67,1.7,3.72,1.7,6.16s-.53,4.37-1.58,6.02c-1.05,1.66-2.53,2.93-4.41,3.81s-4.07,1.31-6.55,1.31h-7.95v13.13h-4.66,0ZM372.99,32.62h7.88c2.42,0,4.4-.68,5.93-2.04,1.53-1.36,2.29-3.21,2.29-5.55s-.78-4.14-2.35-5.35c-1.57-1.21-3.6-1.81-6.09-1.81h-7.66v14.75h0Z"
         id="path4"
         clip-path="none" />
      <path
         class="cls-2"
         d="M408.41,50.06c-3.52,0-6.34-1.12-8.46-3.36-2.12-2.24-3.18-5.48-3.18-9.72,0-2.65.45-4.97,1.35-6.97.9-1.99,2.22-3.55,3.95-4.65,1.73-1.1,3.85-1.66,6.36-1.66,3.49,0,6.28,1.14,8.38,3.44,2.1,2.29,3.16,5.57,3.16,9.84,0,2.59-.44,4.86-1.31,6.82-.87,1.96-2.17,3.5-3.89,4.6-1.72,1.1-3.84,1.66-6.36,1.66h0ZM408.44,46.48c2.26,0,4-.85,5.22-2.56,1.22-1.71,1.83-4.05,1.83-7.03,0-1.81-.24-3.45-.72-4.9-.48-1.45-1.24-2.6-2.28-3.45-1.04-.85-2.38-1.28-4.04-1.28-2.31,0-4.08.85-5.3,2.54-1.23,1.69-1.84,4.05-1.84,7.08,0,1.78.24,3.4.72,4.86.48,1.46,1.25,2.61,2.29,3.46s2.42,1.28,4.12,1.28Z"
         id="path5"
         clip-path="none" />
      <path
         class="cls-2"
         d="M435.26,50.06c-3.31,0-5.92-1.13-7.84-3.39-1.92-2.26-2.89-5.55-2.89-9.89,0-3.96.87-7.13,2.6-9.51,1.73-2.38,4.32-3.57,7.76-3.57,1.62,0,3,.26,4.14.78,1.14.52,2.05,1.14,2.74,1.84.69.7,1.17,1.33,1.45,1.89v-15.11h4.59v36.47h-3.49l-.49-5.2c-.21.65-.61,1.43-1.19,2.33-.58.9-1.46,1.68-2.64,2.35-1.18.67-2.76,1.01-4.74,1.01h0ZM436.07,46.58c2.55,0,4.38-.78,5.49-2.34,1.1-1.56,1.66-4.12,1.66-7.67-.03-2.96-.59-5.26-1.67-6.88-1.08-1.63-2.88-2.44-5.4-2.44-2.08,0-3.77.74-5.08,2.22-1.31,1.48-1.96,3.85-1.96,7.1s.59,5.64,1.77,7.39c1.18,1.75,2.91,2.62,5.2,2.62h0Z"
         id="path6"
         clip-path="none" />
      <path
         class="cls-2"
         d="M460.25,14.11v4.71h-4.64v-4.71h4.64ZM460.12,24.2v25.38h-4.39v-25.38h4.39Z"
         id="path7"
         clip-path="none" />
      <path
         class="cls-2"
         d="M477.92,50.06c-3.52,0-6.34-1.12-8.46-3.36-2.12-2.24-3.18-5.48-3.18-9.72,0-2.65.45-4.97,1.35-6.97.9-1.99,2.22-3.55,3.95-4.65,1.73-1.1,3.85-1.66,6.36-1.66,3.49,0,6.28,1.14,8.38,3.44,2.1,2.29,3.16,5.57,3.16,9.84,0,2.59-.44,4.86-1.31,6.82s-2.17,3.5-3.89,4.6c-1.72,1.1-3.84,1.66-6.36,1.66h0ZM477.94,46.48c2.26,0,4-.85,5.22-2.56,1.22-1.71,1.83-4.05,1.83-7.03,0-1.81-.24-3.45-.72-4.9-.48-1.45-1.24-2.6-2.28-3.45-1.04-.85-2.38-1.28-4.04-1.28-2.31,0-4.08.85-5.3,2.54-1.23,1.69-1.84,4.05-1.84,7.08,0,1.78.24,3.4.72,4.86s1.25,2.61,2.29,3.46,2.42,1.28,4.12,1.28Z"
         id="path8"
         clip-path="none" />
    </g>
    <g
       id="g10">
      <path
         class="cls-2"
         d="M325.57,28.04c-.59-.59-.99-1.35-1.15-2.18s-.07-1.68.26-2.45c.33-.77.88-1.43,1.59-1.88.71-.46,1.53-.69,2.37-.68.55,0,1.1.11,1.62.32.51.21.97.53,1.36.92.54.54.92,1.21,1.11,1.95.18.74.16,1.52-.06,2.24-.14.38-.2.78-.18,1.18s.13.79.31,1.15c.18.36.43.68.74.94s.67.45,1.05.57c.39.12.79.15,1.19.11s.79-.17,1.14-.37c.35-.2.65-.47.9-.79.24-.32.41-.69.51-1.08.45-1.51.55-3.1.28-4.65-.27-1.55-.9-3.02-1.84-4.28-.94-1.27-2.16-2.29-3.57-3.01-1.41-.71-2.96-1.09-4.54-1.09-1.33,0-2.65.24-3.88.75-1.23.51-2.35,1.25-3.29,2.19-1.9,1.9-2.96,4.47-2.96,7.15s1.07,5.25,2.96,7.15l13.18,13.21c.27.28.6.49.96.64.36.15.74.23,1.13.23s.77-.07,1.13-.22c.36-.15.69-.36.96-.63.28-.27.49-.6.64-.95s.23-.74.23-1.12-.07-.77-.22-1.13c-.15-.36-.36-.68-.64-.96l-13.29-13.23h0Z"
         id="path9"
         clip-path="none" />
      <path
         class="cls-2"
         d="M313.18,9.48l-.09.11c-4.12,4.1-6.45,9.66-6.46,15.47-.02,5.81,2.28,11.38,6.37,15.51l13.18,13.23c.56.5,1.3.77,2.05.75s1.47-.33,2.01-.86c.54-.53.85-1.25.87-2,.02-.75-.24-1.49-.75-2.05l-13.2-13.28c-2.99-3-4.67-7.06-4.67-11.29s1.68-8.29,4.67-11.29c3.02-2.99,7.11-4.66,11.37-4.64,4.26.01,8.33,1.71,11.33,4.72,2.51,2.73,4.03,6.22,4.33,9.92.3,3.69-.65,7.38-2.69,10.48-.38.66-.49,1.44-.32,2.17.18.74.63,1.38,1.28,1.79.64.41,1.41.56,2.16.42.75-.14,1.41-.57,1.86-1.18,2.79-4.22,4.08-9.26,3.64-14.3-.44-5.04-2.58-9.78-6.06-13.46-4.09-4.07-9.62-6.38-15.4-6.42-5.78-.04-11.34,2.2-15.48,6.22Z"
         id="path10"
         clip-path="none" />
    </g>
    <path
       class="cls-2"
       d="M493.21,23.94c-2.01,0-3.68-1.57-3.68-3.72s1.67-3.72,3.68-3.72,3.68,1.57,3.68,3.72-1.67,3.72-3.68,3.72M493.21,17.13c-1.67,0-3.01,1.28-3.01,3.09s1.34,3.09,3.01,3.09,3.01-1.28,3.01-3.09-1.34-3.09-3.01-3.09M492.78,20.91v1.24h-1.1v-3.91h1.83c.87,0,1.44.51,1.44,1.36,0,.61-.29,1.02-.75,1.18l.89,1.36h-1.22l-.75-1.24h-.35ZM493.39,19.16h-.61v.87h.61c.33,0,.51-.16.51-.43s-.18-.45-.51-.45"
       id="path11"
       clip-path="none" />
  </g>
</svg>
