<svg width="36" height="36" viewBox="0 0 36 36" fill="none" xmlns="http://www.w3.org/2000/svg">
<path d="M33 16.5V30H30V25.5H6V30H3V6H6V21H18V10.5H27C28.5913 10.5 30.1174 11.1321 31.2426 12.2574C32.3679 13.3826 33 14.9087 33 16.5ZM12 19.5C10.8065 19.5 9.66193 19.0259 8.81802 18.182C7.97411 17.3381 7.5 16.1935 7.5 15C7.5 13.8065 7.97411 12.6619 8.81802 11.818C9.66193 10.9741 10.8065 10.5 12 10.5C13.1935 10.5 14.3381 10.9741 15.182 11.818C16.0259 12.6619 16.5 13.8065 16.5 15C16.5 16.1935 16.0259 17.3381 15.182 18.182C14.3381 19.0259 13.1935 19.5 12 19.5Z" fill="#00345E"/>
</svg>
