<svg width="1440" height="936" viewBox="0 0 1440 936" fill="none" xmlns="http://www.w3.org/2000/svg">
<rect width="1440" height="936" fill="#E8F5FF"/>
<mask id="mask0_314_2371" style="mask-type:alpha" maskUnits="userSpaceOnUse" x="0" y="0" width="1440" height="936">
<rect width="1440" height="936" fill="#E8F5FF"/>
</mask>
<g mask="url(#mask0_314_2371)">
<g style="mix-blend-mode:overlay">
<path d="M633.022 541.201C636.481 536.273 639.425 531.191 641.969 525.913C669.488 469.208 656.099 403.03 682.74 333.485C691.102 311.786 705.782 288.176 722.955 271.152C741.949 252.209 758.001 240.854 773.323 231.331C786.107 220.754 799.982 211.34 814.054 203.716C821.054 199.916 828.13 196.559 834.285 194.123C840.24 191.844 846.045 189.773 845.099 192.391C905.322 157.731 936.484 171.709 959.614 174.023C971.304 176.313 981.457 178.914 990.654 181.065C999.403 183.187 1009.24 185.032 1010.11 184.868C1035.03 186.696 1054.1 193.281 1069.72 199.223C1074.69 201.144 1079.2 203.085 1083.37 204.993C1105.33 217.191 1108.61 222.986 1114.24 228.067C1119.09 233.057 1121.88 236.454 1124.37 239.502C1129.27 245.595 1132.4 250.055 1135.32 254.311C1140.91 262.555 1145.12 269.576 1148.97 276.313C1156.6 289.732 1162.79 302.258 1168.46 314.467C1179.78 338.907 1188.99 362.205 1197.67 383.809C1221.97 441.779 1229.06 489.687 1244.61 515.649C1258.58 539.696 1253.54 555.621 1246.79 572.064C1239.28 591.586 1227.63 611.661 1240.84 636.238C1240.8 635.528 1240.74 634.797 1240.65 634.009C1240.18 629.48 1238.19 625.201 1237.08 622.995C1235.93 620.701 1235.73 619.993 1236.73 619.934C1238.94 620.024 1243.93 621.664 1254.93 625.447C1246.94 623.207 1245.15 625.578 1247.26 626.537C1249.32 627.681 1254.46 628.226 1260.77 627.767C1268.89 626.678 1277.34 625.323 1286.78 622.322C1302.83 617.262 1324.31 600.015 1344.07 554.967C1357.69 528.061 1370.91 499.068 1384.01 469.862C1402.87 432.7 1420.73 411.968 1431.19 390.053C1439.91 373.967 1450.78 360.129 1458.25 349.914C1466.46 338.725 1474.27 330.898 1478.15 326.122C1484.87 318.83 1491.32 312.743 1497 307.504C1502.86 301.964 1507.23 298.807 1515.22 288.208L1513.62 292.044C1518.43 289.459 1523.45 278.712 1527.97 267.318L1527.91 268.705C1534.51 249.592 1540.55 231.081 1543.61 216.068C1546.61 201.148 1550.68 189.369 1554.92 180.342C1556.71 176.516 1560.47 174.75 1564.18 174.748C1564.18 174.748 1564.18 174.748 1564.18 174.748C1568.8 174.75 1573.34 177.489 1573.92 182.406C1576.36 203.635 1582.75 233.35 1594.95 270.478C1594.92 270.731 1594.93 271.494 1594.89 271.744C1596.26 276.879 1597.68 282.18 1599 288.051C1601.61 298.064 1601.76 312.621 1599.63 323.55C1599.28 324.307 1598.44 326.658 1598.02 327.38C1592.39 361.774 1567.23 386.719 1544.91 402.217C1524.03 417.493 1510.01 422.172 1502 438.685C1497.53 446.444 1492.95 454.67 1488.46 463.523C1479.26 481.683 1470.93 500.997 1472.1 508.5C1466.68 538.07 1462.48 568.352 1455.48 598.602C1450.25 632.364 1421.54 714.003 1341.71 750.495C1338.23 752.137 1334.89 753.641 1331.5 755.136C1295.16 770.154 1258.36 785.419 1205.18 773.089C1182.88 767.932 1117.88 768.425 1079.6 686.57C1064.97 660.965 1054.69 629.18 1049.91 604.391C1044.25 576.042 1043.45 546.765 1044.62 510.302C1045.11 492.35 1042.92 477.102 1038.88 464.19C1027.72 432.823 1014.05 410.098 998.625 392.239C990.938 383.368 982.762 375.628 974.771 369.826C970.825 367.002 966.799 364.519 963.813 364.028C962.382 363.846 961.087 364.078 961.398 366.298C961.64 367.483 962.251 369.188 964.544 372.338C967.629 375.758 969.526 380.422 987.066 390.823C980.623 392.067 976.063 398.498 993.905 405.248C967.102 407.371 955.312 408.855 946.826 411.925C943.208 413.372 941.108 415.415 946.168 416.873C950.922 417.161 966.551 422.531 1002.6 398.941C996.498 403.992 994.139 405.935 992.701 407.371C991.325 408.737 991.056 409.32 991.032 409.691C991.069 410.383 992.029 410.223 992.437 410.367C992.884 410.48 992.976 410.821 992.666 411.614C968.917 443.518 944.243 471.107 925.885 494.634C897.972 530.471 868.829 571.55 847.475 608.107C820.71 657.052 795.049 705.77 774.27 747.624C766.504 763.16 759.502 778.149 752.794 793.049C743.844 812.569 731.812 838.433 708.886 866.621C699.518 878.502 689.806 890.827 677.925 904.741C671.863 911.78 665.489 919.079 656.451 928.102C651.832 932.652 646.669 937.638 638.544 944.138C628.644 950.505 624.204 959.793 582.729 972.175C561.063 977.929 539.388 982.404 514.523 985.222C501.957 986.579 488.785 987.602 472.192 987.273C463.808 987.054 454.582 986.582 442.344 984.663C429.796 982.068 415.612 981.396 385.846 964.733C363.527 949.08 329.376 938.287 286.425 876.566C285.906 873.179 269.115 852.702 251.931 823.27C243.422 808.23 233.38 789.398 226.266 763.159C213.593 712.493 197.236 648.265 185.369 595.185C171.99 535.468 159.397 479.984 146.207 443.069C132.074 404.392 118.515 364.741 108.523 331.866C107.814 329.499 107.116 327.202 106.521 325.171C106.212 324.132 105.962 323.224 105.781 322.46C105.703 322.101 105.632 321.759 105.637 321.558C105.635 321.341 105.69 321.233 105.937 321.446C99.0279 307.069 95.6222 297.261 94.044 292.105C93.7216 290.903 93.5963 290.101 93.9499 290.025C94.3333 289.965 95.1 290.594 97.3912 292.751C99.8338 294.892 103.292 298.797 113.419 305.298C122.836 311.375 145.416 322.164 173.46 318.954C189.358 316.964 193.558 314.465 197.515 313.079C201.15 311.569 202.649 310.695 203.81 310.022C205.911 308.74 205.905 308.434 205.636 308.356C204.909 308.279 202.572 309.222 200.095 310.316C195.002 312.588 188.93 315.617 182.754 318.716C170.35 324.958 157.404 331.558 144.384 338.081C127.709 346.192 119.619 349.398 109.393 356.488C99.419 363.374 88.5456 373.773 77.8474 385.875C23.592 449.131 -21.6002 512.99 -51.682 555.495C-52.6624 556.88 -53.6307 558.247 -54.586 559.594C-116.461 648.263 -132.026 671.533 -158.927 770.429C-162.683 785.098 -167.532 800.942 -172.707 816.944C-188.861 868.818 -223.419 922.605 -262.859 958.813C-276.145 970.935 -282.6 974.311 -289.107 973.03C-295.971 967.914 -295.826 952.121 -290.96 934.927C-276.553 884.501 -253.671 850.742 -264.206 819.943C-269.076 806.002 -273.662 794.321 -277.245 783.885C-286.898 742.339 -281.825 714.243 -244.53 671.787C-195.988 617.551 -231.729 566.572 -209.055 532.471C-199.434 518.177 -188.738 512.51 -174.582 496.076C-154.406 473.217 -130.898 429.935 -79.8791 319.689C-75.422 310.259 -70.9618 301.088 -66.5584 292.233C-46.1772 247.632 1.63634 194.407 34.0886 171.561C45.6942 161.981 56.5698 152.919 67.6012 143.916C73.1349 139.412 78.6625 134.929 85.3336 129.909C88.7427 127.368 92.3562 124.698 97.8813 121.162C100.782 119.339 104.006 117.323 109.677 114.432C112.484 113.024 116.024 111.296 121.663 109.133C127.727 107.044 134.31 103.987 152.322 101.854C191.896 97.6471 223.051 113.747 237.617 123.822C253.276 134.672 260.673 143.064 266.764 149.744C278.32 163.045 283.423 171.201 288.19 178.206C297.059 191.69 302.288 200.252 305.009 203.202C334.056 250.463 343.524 272.41 356.811 298.574C364.472 314.102 371.881 333.776 379.055 356.155C400.493 421.834 404.514 491.378 412.643 551.233C418.648 593.469 424.843 627.596 436.895 660.752C441.011 672.265 445.423 685.146 450.208 699.464C448.352 691.552 448.523 693.909 454.637 701.323C460.729 709.463 470.799 719.378 488.779 745.694C483.009 736.933 481.922 737.8 486.533 740.762C490.972 743.88 499.776 749.248 510.699 755.584C489.676 743.934 484.692 745.188 481.193 744.056C478.085 743.527 478.048 743.618 478.763 743.567C480.406 743.537 485.364 743.281 490.638 742.63C501.443 741.349 514.476 738.763 525.924 735.592C506.958 740.491 501.213 744.871 496.685 747.252C492.506 749.749 490.869 751.007 489.818 751.733C487.907 753.114 488.633 752.45 489.635 751.299C491.866 748.845 495.916 744.242 499.911 739.425C508.08 729.606 516.784 718.417 524.731 707.767C524.958 705.56 528.407 696.454 531.132 685.014C534.317 671.824 538.692 658.608 543.436 647.737C563.97 599.511 593.324 597.397 633.022 541.201Z" fill="#023E6E" fill-opacity="0.9"/>
</g>
</g>
</svg>
