<svg width="40" height="40" viewBox="0 0 40 40" fill="none" xmlns="http://www.w3.org/2000/svg">
<path d="M18.3912 34.5989C19.3731 33.9752 20.6269 33.9752 21.6088 34.5989L28.7301 39.1233C30.9844 40.5555 33.8457 38.5496 33.2678 35.942L31.2718 26.9356C31.0393 25.8867 31.3855 24.7936 32.1793 24.0698L38.9579 17.8884C40.8872 16.1291 39.8039 12.9158 37.2034 12.6835L28.5739 11.9129C27.4509 11.8126 26.4789 11.0911 26.0578 10.0453L22.7829 1.91161C21.7739 -0.594386 18.2261 -0.594382 17.2171 1.91162L13.9422 10.0453C13.5211 11.0911 12.5491 11.8126 11.4261 11.9129L2.79665 12.6835C0.196074 12.9158 -0.88715 16.1291 1.04209 17.8884L7.8207 24.0698C8.61452 24.7936 8.96067 25.8867 8.72822 26.9356L6.7322 35.942C6.15431 38.5496 9.01557 40.5555 11.2699 39.1233L18.3912 34.5989Z" fill="#FAA61A"/>
</svg>
