<svg width="1440" height="780" viewBox="0 0 1440 780" fill="none" xmlns="http://www.w3.org/2000/svg">
<rect width="1440" height="780" fill="#00345E"/>
<mask id="mask0_314_2570" style="mask-type:alpha" maskUnits="userSpaceOnUse" x="0" y="0" width="1440" height="780">
<rect width="1440" height="780" fill="#00345E"/>
</mask>
<g mask="url(#mask0_314_2570)">
<g style="mix-blend-mode:lighten">
<path d="M285.392 567.065C289.078 572.428 292.174 577.96 294.812 583.697C321.579 641.4 307.779 708.31 334.71 778.768C342.949 800.177 357.257 823.501 374.115 840.659C393.646 860.622 410.118 872.48 425.837 882.474C438.491 893.122 452.238 902.666 466.283 910.498C473.265 914.397 480.353 917.874 486.535 920.42C492.523 922.81 498.387 925.004 497.463 922.392C557.291 957.831 589.592 944.087 612.773 941.769C624.568 939.493 634.775 936.883 643.984 934.723C652.737 932.591 662.572 930.733 663.26 930.907C688.991 928.959 708.363 921.963 724.159 915.76C728.846 913.886 733.121 911.999 737.085 910.146C759.311 897.531 762.397 891.712 767.996 886.573C772.807 881.506 775.536 878.122 778.01 875.03C782.855 868.884 785.956 864.38 788.848 860.075C794.41 851.729 798.591 844.612 802.432 837.768C810.037 824.141 816.218 811.396 821.883 798.979C833.186 774.116 842.382 750.403 851.045 728.406C875.167 669.606 882.123 621.121 897.666 594.754C911.714 570.207 906.464 554.068 899.606 537.283C892.047 517.56 880.501 497.061 894.068 471.647C894.057 472.167 894.035 472.709 893.999 473.273C893.759 477.513 891.933 481.852 890.808 484.149C889.643 486.538 889.333 487.334 890.25 487.422C892.306 487.388 897.209 485.699 908.378 481.78C900.106 484.163 897.977 481.742 899.957 480.784C901.865 479.637 906.948 479.131 913.187 479.67C921.458 480.892 930.08 482.417 939.736 485.731C955.843 491.164 977.311 509.33 996.913 554.813C1010.54 582.257 1023.79 611.86 1036.9 641.642C1055.6 679.215 1073.54 700.503 1084.03 722.805C1092.79 739.287 1103.85 753.501 1111.39 763.922C1119.42 774.987 1126.99 782.777 1130.8 787.601C1137.52 795.092 1143.96 801.377 1149.66 806.837C1155.53 812.587 1159.96 816.033 1167.91 826.843L1166.34 823.034C1171.24 825.994 1176.25 837.062 1180.79 848.71L1180.73 847.342C1187.4 866.981 1193.52 885.953 1196.61 901.326C1199.61 916.458 1203.68 928.403 1207.92 937.556C1209.71 941.436 1213.47 943.226 1217.18 943.229C1217.18 943.229 1217.18 943.229 1217.18 943.229C1221.8 943.226 1226.34 940.448 1226.92 935.463C1229.38 913.825 1235.82 883.464 1248.16 845.594C1248.13 845.345 1248.14 844.593 1248.1 844.345C1249.42 839.349 1250.8 834.225 1252.09 828.576C1254.82 818.158 1255.13 803.334 1252.93 791.945C1252.59 791.192 1251.77 788.858 1251.37 788.139C1245.78 753.706 1220.8 728.359 1198.22 712.277C1177.32 696.627 1163.32 691.755 1155.27 674.843C1150.88 667.049 1146.37 658.791 1141.96 649.917C1132.67 631.262 1124.3 611.551 1125.35 603.612C1119.95 573.468 1115.8 542.687 1108.77 511.867C1103.34 477.696 1076.02 396.302 996.084 358.056C992.289 356.197 988.702 354.529 985.033 352.86C948.884 337.449 911.573 321.573 857.747 334.493C835.3 339.533 769.256 341.505 732.642 422.253C718.014 448.201 707.704 480.221 702.87 505.618C697.17 534.473 696.345 564.48 697.498 601.878C697.983 620.342 695.747 636.023 691.629 649.305C680.474 681.18 666.763 704.334 651.267 722.633C643.539 731.73 635.324 739.685 627.261 745.73C623.278 748.675 619.209 751.288 616.147 751.915C614.678 752.163 613.332 752.007 613.568 749.843C613.765 748.692 614.335 747.005 616.559 743.86C619.641 740.396 621.279 735.777 639.172 724.95C632.802 723.806 628.223 717.318 646.721 710.502C619.575 708.517 607.849 707.142 599.498 704.102C595.963 702.673 593.993 700.616 599.356 699.188C604.317 698.886 620.896 693.842 656.617 717.799C650.328 712.488 647.991 710.519 646.597 709.069C645.269 707.697 645.063 707.134 645.083 706.778C645.213 706.12 646.176 706.283 646.514 706.055C646.852 705.881 646.867 705.47 646.54 704.661C622.85 672.112 598.157 643.859 579.701 619.608C551.655 582.715 522.419 540.534 500.932 502.889C474.125 452.838 448.433 403.122 427.631 360.464C419.764 344.442 412.685 329.01 405.913 313.704C397.052 294.043 385.211 268.162 362.617 239.822C353.272 227.743 343.585 215.212 331.751 201.077C325.713 193.928 319.37 186.518 310.38 177.359C305.783 172.737 300.663 167.687 292.564 161.068C282.62 154.582 278.583 145.164 236.259 132.236C214.514 126.363 192.759 121.791 167.749 118.902C155.108 117.512 141.848 116.459 125.092 116.796C116.627 117.021 107.293 117.507 94.9035 119.489C82.2333 122.146 67.7071 122.95 37.9158 139.978C15.5976 155.834 -19.0625 167.464 -61.2618 229.434C-62.0812 233.471 -80.1587 255.407 -98.1172 287.822C-105.922 302.347 -114.745 320.281 -121.011 344.124C-133.514 395.79 -149.745 460.926 -161.637 515.193C-174.999 575.96 -187.615 632.741 -201.073 671.09C-215.308 710.747 -228.98 751.458 -239.07 785.177C-239.766 787.526 -240.442 789.788 -241.022 791.799C-241.316 792.812 -241.562 793.715 -241.743 794.478C-241.817 794.83 -241.891 795.176 -241.889 795.381C-241.894 795.599 -241.845 795.712 -241.617 795.521C-248.434 810.008 -251.826 819.969 -253.476 825.346C-253.819 826.604 -253.972 827.465 -253.664 827.607C-253.326 827.731 -252.617 827.169 -250.427 825.071C-248.073 822.98 -244.782 819.13 -234.732 812.478C-225.476 806.331 -202.48 794.773 -173.332 798.127C-157.019 800.209 -152.782 802.809 -148.766 804.237C-145.084 805.795 -143.571 806.692 -142.396 807.383C-140.278 808.695 -140.285 809.002 -140.552 809.077C-141.276 809.145 -143.616 808.17 -146.093 807.042C-151.188 804.7 -157.26 801.587 -163.435 798.403C-175.84 791.989 -188.786 785.21 -201.811 778.506C-218.543 770.139 -226.632 766.814 -236.929 759.451C-246.965 752.303 -257.875 741.587 -268.583 729.184C-322.849 664.472 -368.069 599.193 -398.307 555.46C-399.571 553.633 -400.815 551.835 -402.038 550.071C-463.842 459.516 -479.378 435.796 -506.093 335.333C-509.78 320.593 -514.551 304.628 -519.639 288.518C-535.677 235.785 -570.225 180.802 -609.843 143.495C-623.14 131.047 -629.603 127.499 -636.107 128.823C-642.981 133.891 -642.931 149.791 -638.087 167.251C-623.755 218.449 -600.863 252.926 -611.44 284.046C-616.415 298.384 -621.085 310.373 -624.701 321.086C-634.277 362.607 -629.158 390.969 -592.109 434.124C-543.629 489.56 -579.583 540.671 -556.964 575.424C-547.14 590.337 -536.165 596.14 -521.53 613.857C-501.51 637.529 -478.167 681.959 -428.256 792.153C-423.585 802.277 -418.843 812.213 -414.194 821.74C-394.019 866.765 -346.528 920.842 -313.807 944.248C-302.215 953.964 -291.351 963.16 -280.329 972.301C-274.8 976.873 -269.276 981.426 -262.607 986.53C-259.197 989.115 -255.591 991.826 -250.055 995.434C-247.151 997.292 -243.926 999.347 -238.227 1002.31C-235.39 1003.76 -231.861 1005.52 -226.142 1007.76C-220.003 1009.91 -213.378 1013.09 -194.906 1015.32C-153.943 1019.71 -122.356 1002.56 -107.994 992.354C-92.4257 981.238 -85.2429 972.844 -79.2444 966.115C-67.9059 952.751 -62.889 944.577 -58.183 937.518C-49.4247 923.932 -44.2093 915.219 -41.4225 912.08C-12.8095 864.624 -3.33364 842.318 9.82069 815.922C17.5763 799.909 25.057 779.591 32.2943 756.476C53.5127 689.903 57.4452 619.313 65.633 558.275C71.545 516.172 77.6847 481.745 89.4532 448.564C93.7534 436.256 98.4322 422.218 103.487 406.714C101.839 414.023 102.18 411.427 108.354 403.734C114.498 395.335 124.632 385.097 142.4 358.547C136.938 367.026 135.848 366.226 140.457 363.178C144.889 359.995 153.687 354.518 164.627 348.041C143.519 359.987 138.216 358.806 134.589 359.975C131.331 360.539 131.197 360.449 131.836 360.503C133.328 360.534 138.208 360.786 143.411 361.442C154.081 362.731 167.026 365.347 178.374 368.548C158.901 363.403 153.206 358.882 148.655 356.446C144.476 353.891 142.867 352.625 141.837 351.899C139.969 350.521 140.73 351.232 141.755 352.428C144.033 354.978 148.097 359.689 152.1 364.609C160.282 374.639 168.969 386.027 176.895 396.86C177.307 399.314 180.803 408.671 183.516 420.219C186.767 433.869 191.221 447.517 196.049 458.693C216.567 507.335 245.904 509.979 285.392 567.065Z" fill="#023E6E"/>
</g>
</g>
</svg>
